<svg width="50" height="50" viewBox="0 0 50 50" fill="none" xmlns="http://www.w3.org/2000/svg">
<g clip-path="url(#clip0_29_17)">
<rect x="3" y="24.4918" width="8.95413" height="8.95413" rx="1.68512" transform="rotate(-45 3 24.4918)" fill="#0094FF"/>
<rect x="10.3868" y="17.105" width="8.95413" height="8.95413" rx="1.68512" transform="rotate(-45 10.3868 17.105)" fill="#0094FF"/>
<rect x="17.7735" y="9.71832" width="8.95413" height="8.95413" rx="1.68512" transform="rotate(-45 17.7735 9.71832)" fill="#0094FF"/>
<rect x="10.7385" y="32.2304" width="8.95413" height="8.95413" rx="1.68512" transform="rotate(-45 10.7385 32.2304)" fill="#0094FF"/>
<rect x="18.1253" y="24.8436" width="8.95413" height="8.95413" rx="1.68512" transform="rotate(-45 18.1253 24.8436)" fill="#0094FF"/>
<rect x="25.5121" y="17.4568" width="8.95413" height="8.95413" rx="1.68512" transform="rotate(-45 25.5121 17.4568)" fill="#0094FF"/>
<rect x="32.8988" y="10.0701" width="8.95413" height="8.95413" rx="1.68512" transform="rotate(-45 32.8988 10.0701)" fill="#0094FF"/>
<rect x="18.477" y="39.9689" width="8.95413" height="8.95413" rx="1.68512" transform="rotate(-45 18.477 39.9689)" fill="#0094FF"/>
<rect x="25.8638" y="32.5822" width="8.95413" height="8.95413" rx="1.68512" transform="rotate(-45 25.8638 32.5822)" fill="#0094FF"/>
<rect x="33.2506" y="25.1954" width="8.95413" height="8.95413" rx="1.68512" transform="rotate(-45 33.2506 25.1954)" fill="#0094FF"/>
</g>
<defs>
<clipPath id="clip0_29_17">
<rect width="50" height="50" fill="white"/>
</clipPath>
</defs>
</svg>
