<svg width="74" height="90" viewBox="0 0 74 90" fill="none" xmlns="http://www.w3.org/2000/svg">
<rect x="8" y="33.8159" width="10.6273" height="10.6273" rx="2" transform="rotate(-45 8 33.8159)" fill="#0094FF"/>
<rect x="16.767" y="25.0488" width="10.6273" height="10.6273" rx="2" transform="rotate(-45 16.767 25.0488)" fill="#0094FF"/>
<rect x="25.5341" y="16.2817" width="10.6273" height="10.6273" rx="2" transform="rotate(-45 25.5341 16.2817)" fill="#0094FF"/>
<rect x="17.1845" y="43.0004" width="10.6273" height="10.6273" rx="2" transform="rotate(-45 17.1845 43.0004)" fill="#0094FF"/>
<rect x="25.9516" y="34.2333" width="10.6273" height="10.6273" rx="2" transform="rotate(-45 25.9516 34.2333)" fill="#0094FF"/>
<rect x="34.7187" y="25.4663" width="10.6273" height="10.6273" rx="2" transform="rotate(-45 34.7187 25.4663)" fill="#0094FF"/>
<rect x="43.4857" y="16.6992" width="10.6273" height="10.6273" rx="2" transform="rotate(-45 43.4857 16.6992)" fill="#0094FF"/>
<rect x="26.3691" y="52.185" width="10.6273" height="10.6273" rx="2" transform="rotate(-45 26.3691 52.185)" fill="#0094FF"/>
<rect x="35.1361" y="43.4179" width="10.6273" height="10.6273" rx="2" transform="rotate(-45 35.1361 43.4179)" fill="#0094FF"/>
<rect x="43.9032" y="34.6508" width="10.6273" height="10.6273" rx="2" transform="rotate(-45 43.9032 34.6508)" fill="#0094FF"/>
<path d="M0.56 78.4C0.56 77.3013 0.805333 76.32 1.296 75.456C1.79733 74.5813 2.47467 73.904 3.328 73.424C4.192 72.9333 5.15733 72.688 6.224 72.688C7.472 72.688 8.56533 73.008 9.504 73.648C10.4427 74.288 11.0987 75.1733 11.472 76.304H8.896C8.64 75.7707 8.27733 75.3707 7.808 75.104C7.34933 74.8373 6.816 74.704 6.208 74.704C5.55733 74.704 4.976 74.8587 4.464 75.168C3.96267 75.4667 3.568 75.8933 3.28 76.448C3.00267 77.0027 2.864 77.6533 2.864 78.4C2.864 79.136 3.00267 79.7867 3.28 80.352C3.568 80.9067 3.96267 81.3387 4.464 81.648C4.976 81.9467 5.55733 82.096 6.208 82.096C6.816 82.096 7.34933 81.9627 7.808 81.696C8.27733 81.4187 8.64 81.0133 8.896 80.48H11.472C11.0987 81.6213 10.4427 82.512 9.504 83.152C8.576 83.7813 7.48267 84.096 6.224 84.096C5.15733 84.096 4.192 83.856 3.328 83.376C2.47467 82.8853 1.79733 82.208 1.296 81.344C0.805333 80.48 0.56 79.4987 0.56 78.4ZM12.8092 79.536C12.8092 78.64 12.9852 77.8453 13.3372 77.152C13.6999 76.4587 14.1853 75.9253 14.7933 75.552C15.4119 75.1787 16.0999 74.992 16.8573 74.992C17.5186 74.992 18.0946 75.1253 18.5853 75.392C19.0866 75.6587 19.4866 75.9947 19.7853 76.4V75.136H22.0413V84H19.7853V82.704C19.4973 83.12 19.0973 83.4667 18.5853 83.744C18.0839 84.0107 17.5026 84.144 16.8413 84.144C16.0946 84.144 15.4119 83.952 14.7933 83.568C14.1853 83.184 13.6999 82.6453 13.3372 81.952C12.9852 81.248 12.8092 80.4427 12.8092 79.536ZM19.7853 79.568C19.7853 79.024 19.6786 78.56 19.4653 78.176C19.2519 77.7813 18.9639 77.4827 18.6013 77.28C18.2386 77.0667 17.8493 76.96 17.4333 76.96C17.0173 76.96 16.6333 77.0613 16.2812 77.264C15.9293 77.4667 15.6413 77.7653 15.4173 78.16C15.2039 78.544 15.0973 79.0027 15.0973 79.536C15.0973 80.0693 15.2039 80.5387 15.4173 80.944C15.6413 81.3387 15.9293 81.6427 16.2812 81.856C16.6439 82.0693 17.0279 82.176 17.4333 82.176C17.8493 82.176 18.2386 82.0747 18.6013 81.872C18.9639 81.6587 19.2519 81.36 19.4653 80.976C19.6786 80.5813 19.7853 80.112 19.7853 79.568ZM26.469 72.16V84H24.229V72.16H26.469ZM28.1061 79.568C28.1061 78.6507 28.2928 77.8507 28.6661 77.168C29.0395 76.4747 29.5568 75.9413 30.2181 75.568C30.8795 75.184 31.6368 74.992 32.4901 74.992C33.5888 74.992 34.4955 75.2693 35.2101 75.824C35.9355 76.368 36.4208 77.136 36.6661 78.128H34.2501C34.1221 77.744 33.9035 77.4453 33.5941 77.232C33.2955 77.008 32.9221 76.896 32.4741 76.896C31.8341 76.896 31.3275 77.1307 30.9541 77.6C30.5808 78.0587 30.3941 78.7147 30.3941 79.568C30.3941 80.4107 30.5808 81.0667 30.9541 81.536C31.3275 81.9947 31.8341 82.224 32.4741 82.224C33.3808 82.224 33.9728 81.8187 34.2501 81.008H36.6661C36.4208 81.968 35.9355 82.7307 35.2101 83.296C34.4848 83.8613 33.5781 84.144 32.4901 84.144C31.6368 84.144 30.8795 83.9573 30.2181 83.584C29.5568 83.2 29.0395 82.6667 28.6661 81.984C28.2928 81.2907 28.1061 80.4853 28.1061 79.568ZM46.6751 75.136V84H44.4191V82.88C44.1311 83.264 43.7525 83.568 43.2831 83.792C42.8245 84.0053 42.3231 84.112 41.7791 84.112C41.0858 84.112 40.4725 83.968 39.9391 83.68C39.4058 83.3813 38.9845 82.9493 38.6751 82.384C38.3765 81.808 38.2271 81.1253 38.2271 80.336V75.136H40.4671V80.016C40.4671 80.72 40.6431 81.264 40.9951 81.648C41.3471 82.0213 41.8271 82.208 42.4351 82.208C43.0538 82.208 43.5391 82.0213 43.8911 81.648C44.2431 81.264 44.4191 80.72 44.4191 80.016V75.136H46.6751ZM55.7013 77.344V79.232H48.9173V77.344H55.7013ZM65.0614 81.872H60.6134L59.8774 84H57.5254L61.5414 72.816H64.1494L68.1654 84H65.7974L65.0614 81.872ZM64.4534 80.08L62.8374 75.408L61.2214 80.08H64.4534ZM70.8025 74.08C70.4078 74.08 70.0772 73.9573 69.8105 73.712C69.5545 73.456 69.4265 73.1413 69.4265 72.768C69.4265 72.3947 69.5545 72.0853 69.8105 71.84C70.0772 71.584 70.4078 71.456 70.8025 71.456C71.1972 71.456 71.5225 71.584 71.7785 71.84C72.0452 72.0853 72.1785 72.3947 72.1785 72.768C72.1785 73.1413 72.0452 73.456 71.7785 73.712C71.5225 73.9573 71.1972 74.08 70.8025 74.08ZM71.9065 75.136V84H69.6665V75.136H71.9065Z" fill="#0094FF"/>
</svg>
