<svg width="85" height="33" viewBox="0 0 85 33" fill="none" xmlns="http://www.w3.org/2000/svg">
<rect y="18.2961" width="5.74989" height="5.74989" rx="1.0821" transform="rotate(-45 0 18.2961)" fill="#0094FF"/>
<rect x="4.74335" y="13.5526" width="5.74989" height="5.74989" rx="1.0821" transform="rotate(-45 4.74335 13.5526)" fill="#0094FF"/>
<rect x="9.48682" y="8.8092" width="5.74989" height="5.74989" rx="1.0821" transform="rotate(-45 9.48682 8.8092)" fill="#0094FF"/>
<rect x="4.96924" y="23.2654" width="5.74989" height="5.74989" rx="1.0821" transform="rotate(-45 4.96924 23.2654)" fill="#0094FF"/>
<rect x="9.71271" y="18.5219" width="5.74989" height="5.74989" rx="1.0821" transform="rotate(-45 9.71271 18.5219)" fill="#0094FF"/>
<rect x="14.4561" y="13.7785" width="5.74989" height="5.74989" rx="1.0821" transform="rotate(-45 14.4561 13.7785)" fill="#0094FF"/>
<rect x="19.1995" y="9.03506" width="5.74989" height="5.74989" rx="1.0821" transform="rotate(-45 19.1995 9.03506)" fill="#0094FF"/>
<rect x="9.93854" y="28.2346" width="5.74989" height="5.74989" rx="1.0821" transform="rotate(-45 9.93854 28.2346)" fill="#0094FF"/>
<rect x="14.682" y="23.4912" width="5.74989" height="5.74989" rx="1.0821" transform="rotate(-45 14.682 23.4912)" fill="#0094FF"/>
<rect x="19.4254" y="18.7478" width="5.74989" height="5.74989" rx="1.0821" transform="rotate(-45 19.4254 18.7478)" fill="#0094FF"/>
<path d="M35.0059 16.3284C35.0059 15.5853 35.1718 14.9216 35.5036 14.3373C35.8427 13.7458 36.3008 13.2877 36.8779 12.963C37.4622 12.6312 38.1151 12.4653 38.8365 12.4653C39.6805 12.4653 40.42 12.6817 41.0548 13.1145C41.6896 13.5474 42.1333 14.1461 42.3858 14.9108H40.6436C40.4705 14.5501 40.2252 14.2796 39.9078 14.0992C39.5976 13.9189 39.2369 13.8287 38.8257 13.8287C38.3856 13.8287 37.9925 13.9333 37.6462 14.1425C37.3071 14.3445 37.0402 14.6331 36.8454 15.0082C36.6579 15.3833 36.5641 15.8234 36.5641 16.3284C36.5641 16.8261 36.6579 17.2662 36.8454 17.6485C37.0402 18.0237 37.3071 18.3158 37.6462 18.525C37.9925 18.727 38.3856 18.828 38.8257 18.828C39.2369 18.828 39.5976 18.7378 39.9078 18.5575C40.2252 18.3699 40.4705 18.0958 40.6436 17.7351H42.3858C42.1333 18.507 41.6896 19.1094 41.0548 19.5422C40.4272 19.9678 39.6878 20.1806 38.8365 20.1806C38.1151 20.1806 37.4622 20.0183 36.8779 19.6937C36.3008 19.3619 35.8427 18.9038 35.5036 18.3194C35.1718 17.7351 35.0059 17.0714 35.0059 16.3284ZM43.2902 17.0967C43.2902 16.4907 43.4092 15.9532 43.6473 15.4843C43.8926 15.0154 44.2208 14.6547 44.632 14.4022C45.0504 14.1497 45.5157 14.0235 46.0279 14.0235C46.4752 14.0235 46.8647 14.1137 47.1966 14.294C47.5356 14.4744 47.8061 14.7016 48.0081 14.9758V14.1209H49.5339V20.1157H48.0081V19.2392C47.8134 19.5206 47.5428 19.755 47.1966 19.9426C46.8575 20.1229 46.4643 20.2131 46.0171 20.2131C45.5121 20.2131 45.0504 20.0833 44.632 19.8236C44.2208 19.5639 43.8926 19.1995 43.6473 18.7306C43.4092 18.2545 43.2902 17.7099 43.2902 17.0967ZM48.0081 17.1183C48.0081 16.7504 47.936 16.4366 47.7917 16.1769C47.6474 15.91 47.4527 15.708 47.2074 15.5709C46.9621 15.4266 46.6988 15.3545 46.4175 15.3545C46.1361 15.3545 45.8764 15.423 45.6383 15.5601C45.4003 15.6972 45.2055 15.8991 45.054 16.1661C44.9097 16.4258 44.8376 16.736 44.8376 17.0967C44.8376 17.4574 44.9097 17.7748 45.054 18.0489C45.2055 18.3158 45.4003 18.5214 45.6383 18.6657C45.8836 18.81 46.1433 18.8821 46.4175 18.8821C46.6988 18.8821 46.9621 18.8136 47.2074 18.6765C47.4527 18.5323 47.6474 18.3303 47.7917 18.0706C47.936 17.8036 48.0081 17.4862 48.0081 17.1183ZM52.5284 12.1082V20.1157H51.0135V12.1082H52.5284ZM53.6356 17.1183C53.6356 16.4979 53.7619 15.9569 54.0144 15.4952C54.2669 15.0262 54.6168 14.6655 55.064 14.4131C55.5113 14.1534 56.0235 14.0235 56.6006 14.0235C57.3436 14.0235 57.9568 14.2111 58.4402 14.5862C58.9307 14.9541 59.259 15.4735 59.4249 16.1444H57.7909C57.7043 15.8847 57.5565 15.6827 57.3472 15.5384C57.1453 15.3869 56.8928 15.3112 56.5898 15.3112C56.1569 15.3112 55.8143 15.4699 55.5618 15.7873C55.3093 16.0975 55.183 16.5412 55.183 17.1183C55.183 17.6882 55.3093 18.1319 55.5618 18.4493C55.8143 18.7595 56.1569 18.9146 56.5898 18.9146C57.203 18.9146 57.6033 18.6405 57.7909 18.0922H59.4249C59.259 18.7415 58.9307 19.2573 58.4402 19.6396C57.9496 20.0219 57.3364 20.2131 56.6006 20.2131C56.0235 20.2131 55.5113 20.0869 55.064 19.8344C54.6168 19.5747 54.2669 19.214 54.0144 18.7523C53.7619 18.2834 53.6356 17.7387 53.6356 17.1183ZM66.1941 14.1209V20.1157H64.6683V19.3583C64.4735 19.618 64.2175 19.8236 63.9 19.975C63.5898 20.1193 63.2508 20.1915 62.8829 20.1915C62.414 20.1915 61.9991 20.0941 61.6384 19.8993C61.2777 19.6973 60.9928 19.4051 60.7836 19.0228C60.5816 18.6332 60.4806 18.1716 60.4806 17.6377V14.1209H61.9955V17.4213C61.9955 17.8974 62.1146 18.2653 62.3526 18.525C62.5907 18.7775 62.9153 18.9038 63.3265 18.9038C63.7449 18.9038 64.0732 18.7775 64.3112 18.525C64.5493 18.2653 64.6683 17.8974 64.6683 17.4213V14.1209H66.1941ZM72.2986 15.6142V16.8911H67.7105V15.6142H72.2986ZM78.6289 18.6765H75.6207L75.1229 20.1157H73.5322L76.2483 12.5518H78.0121L80.7282 20.1157H79.1267L78.6289 18.6765ZM78.2177 17.4646L77.1248 14.3048L76.0319 17.4646H78.2177ZM82.5117 13.4067C82.2448 13.4067 82.0212 13.3237 81.8408 13.1578C81.6677 12.9847 81.5811 12.7719 81.5811 12.5194C81.5811 12.2669 81.6677 12.0577 81.8408 11.8918C82.0212 11.7186 82.2448 11.6321 82.5117 11.6321C82.7786 11.6321 82.9987 11.7186 83.1718 11.8918C83.3522 12.0577 83.4423 12.2669 83.4423 12.5194C83.4423 12.7719 83.3522 12.9847 83.1718 13.1578C82.9987 13.3237 82.7786 13.4067 82.5117 13.4067ZM83.2584 14.1209V20.1157H81.7434V14.1209H83.2584Z" fill="#0094FF"/>
</svg>
